# xmcd
#
# Track frame offsets: 
#        150
#        14792
#        33336
#        50459
#        65621
#        82360
#        99923
#        121707
#        138341
#        157222
#        172896
#        194213
#        213708
#
# Disc length: 3242 seconds
#
# Revision: 0
# Processed by: cddbd v1.5.2PL0 Copyright (c) Steve Scherf et al.
# Submitted via: ExactAudioCopyFreeDBPlugin 1.0
#
DISCID=c20ca80d
DTITLE=Mikel Knight - The Country Rap King 
DYEAR=2010
DGENRE=Rap
TTITLE0=Big City Country Boi
TTITLE1=Whiskey Drinkin
TTITLE2=Saddle Up Shawty
TTITLE3=Cowboys and Cadillacs
TTITLE4=Welcome 2 the Rodeo
TTITLE5=Texas Bad Boi
TTITLE6=Drinkin About You
TTITLE7=Free
TTITLE8=All On My Own
TTITLE9=Pack Yo Bags
TTITLE10=Hoot-N-Holla
TTITLE11=The Last Dance
TTITLE12=Dash Fulla Cowboy Hats
EXTD=
EXTT0=
EXTT1=
EXTT2=
EXTT3=
EXTT4=
EXTT5=
EXTT6=
EXTT7=
EXTT8=
EXTT9=
EXTT10=
EXTT11=
EXTT12=
PLAYORDER=
